<svg id="Layer_1" enable-background="new 0 0 511.979 511.979" height="512" viewBox="0 0 511.979 511.979" width="512" xmlns="http://www.w3.org/2000/svg"><g><path d="m315.979 0c-108.075 0-196 87.925-196 196 0 32.91 8.165 63.943 22.557 91.202l-14.472 33.834c-1.205 2.818-.575 6.086 1.592 8.253l5.303 5.303-10.606 10.606-5.303-5.303c-4.25-4.25-9.899-6.59-15.909-6.59s-11.66 2.341-15.909 6.59c-4.25 4.25-6.591 9.9-6.591 15.91 0 3.411.779 6.696 2.208 9.685l-69.69 69.69c-17.545 17.545-17.545 46.094 0 63.64 8.773 8.773 20.297 13.159 31.82 13.159s23.047-4.386 31.82-13.159l69.695-69.696c3.054 1.453 6.362 2.204 9.678 2.204 5.762 0 11.524-2.193 15.911-6.579 8.771-8.773 8.771-23.047 0-31.82l-5.304-5.304 10.606-10.606 5.303 5.303c1.437 1.436 3.354 2.197 5.306 2.197.994 0 1.996-.198 2.947-.604l33.834-14.472c27.261 14.392 58.294 22.557 91.204 22.557 108.075 0 196-87.925 196-196s-87.925-196-196-196zm-249.787 488.213c-11.695 11.697-30.729 11.697-42.426 0s-11.697-30.73 0-42.427l68.768-68.767 42.426 42.426zm95.285-74.071c-2.926 2.924-7.684 2.925-10.607 0l-53.033-53.034c-1.416-1.417-2.196-3.3-2.196-5.303s.78-3.886 2.196-5.303c1.417-1.417 3.3-2.197 5.304-2.197 2.003 0 3.887.78 5.303 2.197l53.033 53.033c2.924 2.925 2.924 7.683 0 10.607zm-5.304-37.123-21.213-21.213 10.606-10.606 21.213 21.213zm33.535-8.891-45.858-45.857 8.145-19.042c14.818 22.585 34.17 41.937 56.755 56.755zm126.271 8.872c-99.804 0-181-81.196-181-181s81.196-181 181-181 181 81.196 181 181-81.196 181-181 181z"/><path d="m315.979 30c-38.543 0-76.099 13.509-105.749 38.04-3.191 2.641-3.638 7.368-.997 10.56 2.64 3.192 7.367 3.638 10.56.998 26.965-22.311 61.125-34.598 96.186-34.598 83.262 0 151 67.738 151 151s-67.738 151-151 151-151-67.738-151-151c0-35.06 12.287-69.22 34.597-96.188 2.641-3.191 2.194-7.919-.998-10.56-3.19-2.64-7.92-2.195-10.559.998-24.53 29.651-38.04 67.207-38.04 105.749 0 91.533 74.468 166 166 166s166-74.467 166-166-74.468-165.999-166-165.999z"/></g></svg>