<?xml version="1.0" encoding="iso-8859-1"?>
<!-- Generator: Adobe Illustrator 18.0.0, SVG Export Plug-In . SVG Version: 6.00 Build 0)  -->
<!DOCTYPE svg PUBLIC "-//W3C//DTD SVG 1.1//EN" "http://www.w3.org/Graphics/SVG/1.1/DTD/svg11.dtd">
<svg version="1.1" id="Capa_1" xmlns="http://www.w3.org/2000/svg" xmlns:xlink="http://www.w3.org/1999/xlink" x="0px" y="0px"
	 viewBox="0 0 295 295" style="enable-background:new 0 0 295 295;" xml:space="preserve">
<g>
	<path d="M56.5,15h-47C4.253,15,0,19.253,0,24.5v47C0,76.747,4.253,81,9.5,81h47c5.247,0,9.5-4.253,9.5-9.5v-47
		C66,19.253,61.747,15,56.5,15z"/>
	<path d="M108.5,81h80c5.247,0,9.5-4.253,9.5-9.5v-47c0-5.247-4.253-9.5-9.5-9.5h-80c-5.247,0-9.5,4.253-9.5,9.5v47
		C99,76.747,103.253,81,108.5,81z"/>
	<path d="M56.5,114.5h-47c-5.247,0-9.5,4.253-9.5,9.5v47c0,5.247,4.253,9.5,9.5,9.5h47c5.247,0,9.5-4.253,9.5-9.5v-47
		C66,118.753,61.747,114.5,56.5,114.5z"/>
	<path d="M285.5,114.5h-177c-5.247,0-9.5,4.253-9.5,9.5v47c0,5.247,4.253,9.5,9.5,9.5h177c5.247,0,9.5-4.253,9.5-9.5v-47
		C295,118.753,290.747,114.5,285.5,114.5z"/>
	<path d="M66,223.5c0-5.247-4.253-9.5-9.5-9.5h-47c-5.247,0-9.5,4.253-9.5,9.5v47c0,5.247,4.253,9.5,9.5,9.5h47
		c5.247,0,9.5-4.253,9.5-9.5V223.5z"/>
	<path d="M248,223.5c0-5.247-4.253-9.5-9.5-9.5h-130c-5.247,0-9.5,4.253-9.5,9.5v47c0,5.247,4.253,9.5,9.5,9.5h130
		c5.247,0,9.5-4.253,9.5-9.5V223.5z"/>
</g>
<g>
</g>
<g>
</g>
<g>
</g>
<g>
</g>
<g>
</g>
<g>
</g>
<g>
</g>
<g>
</g>
<g>
</g>
<g>
</g>
<g>
</g>
<g>
</g>
<g>
</g>
<g>
</g>
<g>
</g>
</svg>
